999
dxflib 3.26.4.0
  0
SECTION
  2
HEADER
  9
$ACADVER
  1
AC1015
  9
$HANDSEED
  5
FFFF
  9
$ANGBASE
 50
0.0
  9
$ANGDIR
 70
1
  9
$DIMADEC
 70
0
  9
$DIMASZ
 40
0.18
  9
$DIMATFIT
 70
0
  9
$DIMAUNIT
 70
0
  9
$DIMAZIN
 70
0
  9
$DIMBLK
  1
0
  9
$DIMBLK1
  1
0
  9
$DIMBLK2
  1
0
  9
$DIMDEC
 70
4
  9
$DIMDLI
 40
0.36
  9
$DIMDSEP
 70
0
  9
$DIMEXE
 40
0.18
  9
$DIMEXO
 40
0.0625
  9
$DIMGAP
 40
0.09
  9
$DIMLFAC
 40
0.0
  9
$DIMLUNIT
 70
2
  9
$DIMSCALE
 40
0.0
  9
$DIMTAD
 70
0
  9
$DIMTIH
 70
0
  9
$DIMTSZ
 40
0.0
  9
$DIMTXT
 40
0.18
  9
$DIMZIN
 70
0
  9
$DWGCODEPAGE
  3
ANSI_1252
  9
$INSUNITS
 70
0
  9
$LTSCALE
 40
1.0
  9
$MAXACTVP
 70
64
  9
$MEASUREMENT
 70
1
  9
$MIRRTEXT
 70
0
  9
$PDMODE
 70
0
  9
$PDSIZE
 40
0.0
  0
ENDSEC
  0
SECTION
  2
TABLES
  0
TABLE
  2
VPORT
  5
8
100
AcDbSymbolTable
 70
1
  0
VPORT
  5
30
100
AcDbSymbolTableRecord
100
AcDbViewportTableRecord
  2
*Active
 70
0
 10
0.0
 20
0.0
 11
1.0
 21
1.0
 12
286.3055555555554861
 22
148.5
 13
0.0
 23
0.0
 14
10.0
 24
10.0
 15
10.0
 25
10.0
 16
0.0
 26
0.0
 36
1.0
 17
0.0
 27
0.0
 37
0.0
 40
297.0
 41
1.92798353909465
 42
50.0
 43
0.0
 44
0.0
 50
0.0
 51
0.0
 71
0
 72
100
 73
1
 74
3
 75
1
 76
1
 77
0
 78
0
281
0
 65
1
110
0.0
120
0.0
130
0.0
111
1.0
121
0.0
131
0.0
112
0.0
122
1.0
132
0.0
 79
0
146
0.0
  0
ENDTAB
  0
TABLE
  2
LTYPE
  5
5
100
AcDbSymbolTable
 70
42
  0
LTYPE
  5
16
100
AcDbSymbolTableRecord
100
AcDbLinetypeTableRecord
  2
CONTINUOUS
 70
0
  3
Solid line
 72
65
 73
0
 40
0.0
  0
LTYPE
  5
31
100
AcDbSymbolTableRecord
100
AcDbLinetypeTableRecord
  2
BORDER2
 70
0
  3
Border (.5x) __.__.__.__.__.__.__.__.__.__.__.
 72
65
 73
6
 40
22.2249999999999979
 49
6.3499999999999996
 74
0
 49
-3.1749999999999998
 74
0
 49
6.3499999999999996
 74
0
 49
-3.1749999999999998
 74
0
 49
0.0
 74
0
 49
-3.1749999999999998
 74
0
  0
LTYPE
  5
15
100
AcDbSymbolTableRecord
100
AcDbLinetypeTableRecord
  2
BYLAYER
 70
0
  3

 72
65
 73
0
 40
0.0
  0
LTYPE
  5
14
100
AcDbSymbolTableRecord
100
AcDbLinetypeTableRecord
  2
BYBLOCK
 70
0
  3

 72
65
 73
0
 40
0.0
  0
LTYPE
  5
32
100
AcDbSymbolTableRecord
100
AcDbLinetypeTableRecord
  2
ACAD_ISO04W100
 70
0
  3
ISO long-dash dot ____ . ____ . ____ . ____ . _
 72
65
 73
4
 40
30.0
 49
24.0
 74
0
 49
-3.0
 74
0
 49
0.0
 74
0
 49
-3.0
 74
0
  0
LTYPE
  5
33
100
AcDbSymbolTableRecord
100
AcDbLinetypeTableRecord
  2
DOT2
 70
0
  3
Dot (.5x) ........................................
 72
65
 73
2
 40
3.1749999999999998
 49
0.0
 74
0
 49
-3.1749999999999998
 74
0
  0
LTYPE
  5
34
100
AcDbSymbolTableRecord
100
AcDbLinetypeTableRecord
  2
DOTX2
 70
0
  3
Dot (2x) .  .  .  .  .  .  .  .  .  .  .  .  .  .
 72
65
 73
2
 40
12.6999999999999993
 49
0.0
 74
0
 49
-12.6999999999999993
 74
0
  0
LTYPE
  5
35
100
AcDbSymbolTableRecord
100
AcDbLinetypeTableRecord
  2
ACAD_ISO10W100
 70
0
  3
ISO dash dot __ . __ . __ . __ . __ . __ . __ . 
 72
65
 73
4
 40
18.0
 49
12.0
 74
0
 49
-3.0
 74
0
 49
0.0
 74
0
 49
-3.0
 74
0
  0
LTYPE
  5
36
100
AcDbSymbolTableRecord
100
AcDbLinetypeTableRecord
  2
PHANTOM2
 70
0
  3
Phantom (.5x) ___ _ _ ___ _ _ ___ _ _ ___ _ _
 72
65
 73
6
 40
31.7500000000000036
 49
15.875
 74
0
 49
-3.1749999999999998
 74
0
 49
3.1749999999999998
 74
0
 49
-3.1749999999999998
 74
0
 49
3.1749999999999998
 74
0
 49
-3.1749999999999998
 74
0
  0
LTYPE
  5
37
100
AcDbSymbolTableRecord
100
AcDbLinetypeTableRecord
  2
ACAD_ISO05W100
 70
0
  3
ISO long-dash double-dot ____ .. ____ .. ____ . 
 72
65
 73
6
 40
33.0
 49
24.0
 74
0
 49
-3.0
 74
0
 49
0.0
 74
0
 49
-3.0
 74
0
 49
0.0
 74
0
 49
-3.0
 74
0
  0
LTYPE
  5
38
100
AcDbSymbolTableRecord
100
AcDbLinetypeTableRecord
  2
DASHEDX2
 70
0
  3
Dashed (2x) ____  ____  ____  ____  ____  ___
 72
65
 73
2
 40
38.0999999999999943
 49
25.3999999999999986
 74
0
 49
-12.6999999999999993
 74
0
  0
LTYPE
  5
39
100
AcDbSymbolTableRecord
100
AcDbLinetypeTableRecord
  2
BORDER
 70
0
  3
Border __ __ . __ __ . __ __ . __ __ . __ __ .
 72
65
 73
6
 40
44.4499999999999957
 49
12.6999999999999993
 74
0
 49
-6.3499999999999996
 74
0
 49
12.6999999999999993
 74
0
 49
-6.3499999999999996
 74
0
 49
0.0
 74
0
 49
-6.3499999999999996
 74
0
  0
LTYPE
  5
3A
100
AcDbSymbolTableRecord
100
AcDbLinetypeTableRecord
  2
CENTER
 70
0
  3
Center ____ _ ____ _ ____ _ ____ _ ____ _ ____
 72
65
 73
4
 40
50.8000000000000043
 49
31.75
 74
0
 49
-6.3499999999999996
 74
0
 49
6.3499999999999996
 74
0
 49
-6.3499999999999996
 74
0
  0
LTYPE
  5
3B
100
AcDbSymbolTableRecord
100
AcDbLinetypeTableRecord
  2
CENTERX2
 70
0
  3
Center (2x) ________  __  ________  __  _____
 72
65
 73
4
 40
101.6000000000000085
 49
63.5
 74
0
 49
-12.6999999999999993
 74
0
 49
12.6999999999999993
 74
0
 49
-12.6999999999999993
 74
0
  0
LTYPE
  5
3C
100
AcDbSymbolTableRecord
100
AcDbLinetypeTableRecord
  2
ACAD_ISO13W100
 70
0
  3
ISO double-dash double-dot __ __ . . __ __ . . _
 72
65
 73
8
 40
36.0
 49
12.0
 74
0
 49
-3.0
 74
0
 49
12.0
 74
0
 49
-3.0
 74
0
 49
0.0
 74
0
 49
-3.0
 74
0
 49
0.0
 74
0
 49
-3.0
 74
0
  0
LTYPE
  5
3D
100
AcDbSymbolTableRecord
100
AcDbLinetypeTableRecord
  2
HIDDENX2
 70
0
  3
Hidden (2x) ____ ____ ____ ____ ____ ____ ____ 
 72
65
 73
2
 40
19.0499999999999972
 49
12.6999999999999993
 74
0
 49
-6.3499999999999996
 74
0
  0
LTYPE
  5
3E
100
AcDbSymbolTableRecord
100
AcDbLinetypeTableRecord
  2
DIVIDE2
 70
0
  3
Divide (.5x) __..__..__..__..__..__..__..__.._
 72
65
 73
6
 40
15.875
 49
6.3499999999999996
 74
0
 49
-3.1749999999999998
 74
0
 49
0.0
 74
0
 49
-3.1749999999999998
 74
0
 49
0.0
 74
0
 49
-3.1749999999999998
 74
0
  0
LTYPE
  5
3F
100
AcDbSymbolTableRecord
100
AcDbLinetypeTableRecord
  2
DIVIDE
 70
0
  3
Divide ____ . . ____ . . ____ . . ____ . . ____
 72
65
 73
6
 40
31.75
 49
12.6999999999999993
 74
0
 49
-6.3499999999999996
 74
0
 49
0.0
 74
0
 49
-6.3499999999999996
 74
0
 49
0.0
 74
0
 49
-6.3499999999999996
 74
0
  0
LTYPE
  5
40
100
AcDbSymbolTableRecord
100
AcDbLinetypeTableRecord
  2
ACAD_ISO08W100
 70
0
  3
ISO long-dash short-dash ____ __ ____ __ ____ _
 72
65
 73
4
 40
36.0
 49
24.0
 74
0
 49
-3.0
 74
0
 49
6.0
 74
0
 49
-3.0
 74
0
  0
LTYPE
  5
41
100
AcDbSymbolTableRecord
100
AcDbLinetypeTableRecord
  2
PHANTOMX2
 70
0
  3
Phantom (2x) ____________    ____    ____   _
 72
65
 73
6
 40
127.0000000000000142
 49
63.5
 74
0
 49
-12.6999999999999993
 74
0
 49
12.6999999999999993
 74
0
 49
-12.6999999999999993
 74
0
 49
12.6999999999999993
 74
0
 49
-12.6999999999999993
 74
0
  0
LTYPE
  5
42
100
AcDbSymbolTableRecord
100
AcDbLinetypeTableRecord
  2
DASHDOTX2
 70
0
  3
Dash dot (2x) ____  .  ____  .  ____  .  ___
 72
65
 73
4
 40
50.7999999999999972
 49
25.3999999999999986
 74
0
 49
-12.6999999999999993
 74
0
 49
0.0
 74
0
 49
-12.6999999999999993
 74
0
  0
LTYPE
  5
43
100
AcDbSymbolTableRecord
100
AcDbLinetypeTableRecord
  2
HIDDEN
 70
0
  3
Hidden __ __ __ __ __ __ __ __ __ __ __ __ __ __
 72
65
 73
2
 40
9.5249999999999986
 49
6.3499999999999996
 74
0
 49
-3.1749999999999998
 74
0
  0
LTYPE
  5
44
100
AcDbSymbolTableRecord
100
AcDbLinetypeTableRecord
  2
DASHED
 70
0
  3
Dashed __ __ __ __ __
 72
65
 73
2
 40
0.75
 49
0.5
 74
0
 49
-0.25
 74
0
  0
LTYPE
  5
45
100
AcDbSymbolTableRecord
100
AcDbLinetypeTableRecord
  2
DASHED2
 70
0
  3
Dashed (.5x) _ _ _ _ _ _ _ _ _ _ _ _ _ _ _ _ _ 
 72
65
 73
2
 40
9.5249999999999986
 49
6.3499999999999996
 74
0
 49
-3.1749999999999998
 74
0
  0
LTYPE
  5
46
100
AcDbSymbolTableRecord
100
AcDbLinetypeTableRecord
  2
PHANTOM
 70
0
  3
Phantom ______  __  __  ______  __  __  ______ 
 72
65
 73
6
 40
63.5000000000000071
 49
31.75
 74
0
 49
-6.3499999999999996
 74
0
 49
6.3499999999999996
 74
0
 49
-6.3499999999999996
 74
0
 49
6.3499999999999996
 74
0
 49
-6.3499999999999996
 74
0
  0
LTYPE
  5
47
100
AcDbSymbolTableRecord
100
AcDbLinetypeTableRecord
  2
CENTER2
 70
0
  3
Center (.5x) ___ _ ___ _ ___ _ ___ _ ___ _ ___
 72
65
 73
4
 40
28.5750000000000028
 49
19.0500000000000007
 74
0
 49
-3.1749999999999998
 74
0
 49
3.1749999999999998
 74
0
 49
-3.1749999999999998
 74
0
  0
LTYPE
  5
48
100
AcDbSymbolTableRecord
100
AcDbLinetypeTableRecord
  2
ACAD_ISO03W100
 70
0
  3
ISO dash space __    __    __    __    __    __
 72
65
 73
2
 40
30.0
 49
12.0
 74
0
 49
-18.0
 74
0
  0
LTYPE
  5
49
100
AcDbSymbolTableRecord
100
AcDbLinetypeTableRecord
  2
ACAD_ISO06W100
 70
0
  3
ISO long-dash triple-dot ____ ... ____ ... ____
 72
65
 73
8
 40
36.0
 49
24.0
 74
0
 49
-3.0
 74
0
 49
0.0
 74
0
 49
-3.0
 74
0
 49
0.0
 74
0
 49
-3.0
 74
0
 49
0.0
 74
0
 49
-3.0
 74
0
  0
LTYPE
  5
4A
100
AcDbSymbolTableRecord
100
AcDbLinetypeTableRecord
  2
ACAD_ISO14W100
 70
0
  3
ISO dash triple-dot __ . . . __ . . . __ . . . _
 72
65
 73
8
 40
24.0
 49
12.0
 74
0
 49
-3.0
 74
0
 49
0.0
 74
0
 49
-3.0
 74
0
 49
0.0
 74
0
 49
-3.0
 74
0
 49
0.0
 74
0
 49
-3.0
 74
0
  0
LTYPE
  5
4B
100
AcDbSymbolTableRecord
100
AcDbLinetypeTableRecord
  2
HIDDEN2
 70
0
  3
Hidden (.5x) _ _ _ _ _ _ _ _ _ _ _ _ _ _ _ _ _ 
 72
65
 73
2
 40
4.7624999999999993
 49
3.1749999999999998
 74
0
 49
-1.5874999999999999
 74
0
  0
LTYPE
  5
4C
100
AcDbSymbolTableRecord
100
AcDbLinetypeTableRecord
  2
ACAD_ISO02W100
 70
0
  3
ISO dash __ __ __ __ __ __ __ __ __ __ __ __ __
 72
65
 73
2
 40
15.0
 49
12.0
 74
0
 49
-3.0
 74
0
  0
LTYPE
  5
4D
100
AcDbSymbolTableRecord
100
AcDbLinetypeTableRecord
  2
BORDERX2
 70
0
  3
Border (2x) ____  ____  .  ____  ____  .  ___
 72
65
 73
6
 40
88.8999999999999915
 49
25.3999999999999986
 74
0
 49
-12.6999999999999993
 74
0
 49
25.3999999999999986
 74
0
 49
-12.6999999999999993
 74
0
 49
0.0
 74
0
 49
-12.6999999999999993
 74
0
  0
LTYPE
  5
4E
100
AcDbSymbolTableRecord
100
AcDbLinetypeTableRecord
  2
DOT
 70
0
  3
Dot . . . . . . . . . . . . . . . . . . . . . . . .
 72
65
 73
2
 40
6.3499999999999996
 49
0.0
 74
0
 49
-6.3499999999999996
 74
0
  0
LTYPE
  5
4F
100
AcDbSymbolTableRecord
100
AcDbLinetypeTableRecord
  2
ACAD_ISO11W100
 70
0
  3
ISO double-dash dot __ __ . __ __ . __ __ . __ _
 72
65
 73
6
 40
33.0
 49
12.0
 74
0
 49
-3.0
 74
0
 49
12.0
 74
0
 49
-3.0
 74
0
 49
0.0
 74
0
 49
-3.0
 74
0
  0
LTYPE
  5
50
100
AcDbSymbolTableRecord
100
AcDbLinetypeTableRecord
  2
DIVIDEX2
 70
0
  3
Divide (2x) ________  .  .  ________  .  .  _
 72
65
 73
6
 40
63.5
 49
25.3999999999999986
 74
0
 49
-12.6999999999999993
 74
0
 49
0.0
 74
0
 49
-12.6999999999999993
 74
0
 49
0.0
 74
0
 49
-12.6999999999999993
 74
0
  0
LTYPE
  5
51
100
AcDbSymbolTableRecord
100
AcDbLinetypeTableRecord
  2
ACAD_ISO15W100
 70
0
  3
ISO double-dash triple-dot __ __ . . . __ __ . .
 72
65
 73
10
 40
39.0
 49
12.0
 74
0
 49
-3.0
 74
0
 49
12.0
 74
0
 49
-3.0
 74
0
 49
0.0
 74
0
 49
-3.0
 74
0
 49
0.0
 74
0
 49
-3.0
 74
0
 49
0.0
 74
0
 49
-3.0
 74
0
  0
LTYPE
  5
52
100
AcDbSymbolTableRecord
100
AcDbLinetypeTableRecord
  2
DASHDOT
 70
0
  3
Dash Dot ____ _ ____ _
 72
65
 73
4
 40
2.0
 49
1.25
 74
0
 49
-0.25
 74
0
 49
0.25
 74
0
 49
-0.25
 74
0
  0
LTYPE
  5
53
100
AcDbSymbolTableRecord
100
AcDbLinetypeTableRecord
  2
ACAD_ISO09W100
 70
0
  3
ISO long-dash double-short-dash ____ __ __ ____
 72
65
 73
6
 40
45.0
 49
24.0
 74
0
 49
-3.0
 74
0
 49
6.0
 74
0
 49
-3.0
 74
0
 49
6.0
 74
0
 49
-3.0
 74
0
  0
LTYPE
  5
54
100
AcDbSymbolTableRecord
100
AcDbLinetypeTableRecord
  2
ACAD_ISO12W100
 70
0
  3
ISO dash double-dot __ . . __ . . __ . . __ . . 
 72
65
 73
6
 40
21.0
 49
12.0
 74
0
 49
-3.0
 74
0
 49
0.0
 74
0
 49
-3.0
 74
0
 49
0.0
 74
0
 49
-3.0
 74
0
  0
LTYPE
  5
55
100
AcDbSymbolTableRecord
100
AcDbLinetypeTableRecord
  2
DOTTED
 70
0
  3
Dotted .  .  .  .
 72
65
 73
2
 40
0.2
 49
0.1
 74
0
 49
-0.1
 74
0
  0
LTYPE
  5
56
100
AcDbSymbolTableRecord
100
AcDbLinetypeTableRecord
  2
ACAD_ISO07W100
 70
0
  3
ISO dot . . . . . . . . . . . . . . . . . . . . 
 72
65
 73
2
 40
3.0
 49
0.0
 74
0
 49
-3.0
 74
0
  0
LTYPE
  5
57
100
AcDbSymbolTableRecord
100
AcDbLinetypeTableRecord
  2
DASHDOT2
 70
0
  3
Dash dot (.5x) _._._._._._._._._._._._._._._.
 72
65
 73
4
 40
12.6999999999999993
 49
6.3499999999999996
 74
0
 49
-3.1749999999999998
 74
0
 49
0.0
 74
0
 49
-3.1749999999999998
 74
0
  0
ENDTAB
  0
TABLE
  2
LAYER
  5
2
100
AcDbSymbolTable
 70
2
  0
LAYER
  5
10
100
AcDbSymbolTableRecord
100
AcDbLayerTableRecord
  2
0
 70
1
 62
7
420
16777215
  6
CONTINUOUS
370
0
390
F
  0
LAYER
  5
58
100
AcDbSymbolTableRecord
100
AcDbLayerTableRecord
  2
layer 1
 70
0
 62
7
420
0
  6
CONTINUOUS
370
0
390
F
  0
ENDTAB
  0
TABLE
  2
STYLE
  5
3
100
AcDbSymbolTable
 70
1
  0
STYLE
  5
59
100
AcDbSymbolTableRecord
100
AcDbTextStyleTableRecord
  2
Standard
 70
0
 40
0.0
 41
1.0
 50
0.0
 71
0
 42
2.5
  3

  4

1001
ACAD
1000
txt
1071
0
  0
ENDTAB
  0
TABLE
  2
VIEW
  5
6
100
AcDbSymbolTable
 70
0
  0
ENDTAB
  0
TABLE
  2
UCS
  5
7
100
AcDbSymbolTable
 70
0
  0
ENDTAB
  0
TABLE
  2
APPID
  5
9
100
AcDbSymbolTable
 70
1
  0
APPID
  5
12
100
AcDbSymbolTableRecord
100
AcDbRegAppTableRecord
  2
ACAD
 70
0
  0
APPID
  5
5A
100
AcDbSymbolTableRecord
100
AcDbRegAppTableRecord
  2
QCAD
 70
0
  0
ENDTAB
  0
TABLE
  2
DIMSTYLE
  5
A
100
AcDbSymbolTable
 70
1
100
AcDbDimStyleTable
 71
0
  0
DIMSTYLE
105
27
100
AcDbSymbolTableRecord
100
AcDbDimStyleTableRecord
  2
Standard
 41
0.18
 42
0.0625
 43
3.75
 44
0.18
 70
0
 73
0
 74
0
 77
0
 78
8
140
0.18
141
2.5
143
0.03937007874016
147
0.09
171
3
172
1
271
2
272
2
274
3
278
44
283
0
284
8
340
59
  0
ENDTAB
  0
TABLE
  2
BLOCK_RECORD
  5
1
100
AcDbSymbolTable
 70
1
  0
BLOCK_RECORD
  5
1F
100
AcDbSymbolTableRecord
100
AcDbBlockTableRecord
  2
*Model_Space
340
22
  0
BLOCK_RECORD
  5
1B
100
AcDbSymbolTableRecord
100
AcDbBlockTableRecord
  2
*Paper_Space
340
1E
  0
BLOCK_RECORD
  5
23
100
AcDbSymbolTableRecord
100
AcDbBlockTableRecord
  2
*Paper_Space0
340
26
  0
ENDTAB
  0
ENDSEC
  0
SECTION
  2
BLOCKS
  0
BLOCK
  5
20
100
AcDbEntity
  8
0
100
AcDbBlockBegin
  2
*Model_Space
 70
0
 10
0.0
 20
0.0
 30
0.0
  3
*Model_Space
  1

  0
ENDBLK
  5
21
100
AcDbEntity
  8
0
100
AcDbBlockEnd
  0
BLOCK
  5
1C
100
AcDbEntity
 67
1
  8
0
100
AcDbBlockBegin
  2
*Paper_Space
 70
0
 10
0.0
 20
0.0
 30
0.0
  3
*Paper_Space
  1

  0
ENDBLK
  5
1D
100
AcDbEntity
 67
1
  8
0
100
AcDbBlockEnd
  0
BLOCK
  5
24
100
AcDbEntity
  8
0
100
AcDbBlockBegin
  2
*Paper_Space0
 70
0
 10
0.0
 20
0.0
 30
0.0
  3
*Paper_Space0
  1

  0
ENDBLK
  5
25
100
AcDbEntity
  8
0
100
AcDbBlockEnd
  0
ENDSEC
  0
SECTION
  2
ENTITIES
  0
CIRCLE
  5
5B
100
AcDbEntity
  8
layer 1
 62
256
370
-1
 48
1.0
  6
BYLAYER
100
AcDbCircle
 10
4.9999999999999858
 20
5.0
 30
0.0
 40
1.5
  0
CIRCLE
  5
5C
100
AcDbEntity
  8
layer 1
 62
256
370
-1
 48
1.0
  6
BYLAYER
100
AcDbCircle
 10
4.9999999999999858
 20
50.4999999999999858
 30
0.0
 40
1.5
  0
CIRCLE
  5
5D
100
AcDbEntity
  8
layer 1
 62
256
370
-1
 48
1.0
  6
BYLAYER
100
AcDbCircle
 10
84.9999999999999858
 20
5.0
 30
0.0
 40
1.5
  0
LINE
  5
5E
100
AcDbEntity
  8
layer 1
 62
256
370
-1
 48
1.0
  6
CONTINUOUS
100
AcDbLine
 10
89.9999999999999858
 20
0.0000000000000142
 30
0.0
 11
-0.0000000000000142
 21
0.0000000000000142
 31
0.0
  0
LINE
  5
5F
100
AcDbEntity
  8
layer 1
 62
256
370
-1
 48
1.0
  6
CONTINUOUS
100
AcDbLine
 10
89.9999999999999858
 20
55.5000000000000142
 30
0.0
 11
-0.0000000000000142
 21
55.4999999999999858
 31
0.0
  0
LINE
  5
60
100
AcDbEntity
  8
layer 1
 62
256
370
-1
 48
1.0
  6
CONTINUOUS
100
AcDbLine
 10
89.9999999999999858
 20
55.5000000000000142
 30
0.0
 11
89.9999999999999858
 21
0.0000000000000142
 31
0.0
  0
LINE
  5
61
100
AcDbEntity
  8
layer 1
 62
256
370
-1
 48
1.0
  6
CONTINUOUS
100
AcDbLine
 10
-0.0000000000000142
 20
55.4999999999999858
 30
0.0
 11
-0.0000000000000142
 21
0.0000000000000142
 31
0.0
  0
CIRCLE
  5
62
100
AcDbEntity
  8
layer 1
 62
256
370
-1
 48
1.0
  6
BYLAYER
100
AcDbCircle
 10
84.9999999999999858
 20
50.5000000000000213
 30
0.0
 40
1.5
  0
CIRCLE
  5
63
100
AcDbEntity
  8
layer 1
 62
256
370
0
 48
1.0
  6
BYLAYER
100
AcDbCircle
 10
59.1599999999999824
 20
46.0400000000000063
 30
0.0
 40
1.5
  0
CIRCLE
  5
64
100
AcDbEntity
  8
layer 1
 62
256
370
0
 48
1.0
  6
BYLAYER
100
AcDbCircle
 10
59.159999999999954
 20
35.8800000000000026
 30
0.0
 40
1.5
  0
CIRCLE
  5
65
100
AcDbEntity
  8
layer 1
 62
256
370
0
 48
1.0
  6
BYLAYER
100
AcDbCircle
 10
59.159999999999954
 20
25.720000000000006
 30
0.0
 40
1.5
  0
CIRCLE
  5
66
100
AcDbEntity
  8
layer 1
 62
256
370
0
 48
1.0
  6
BYLAYER
100
AcDbCircle
 10
59.159999999999954
 20
10.4800000000000182
 30
0.0
 40
1.5
  0
CIRCLE
  5
67
100
AcDbEntity
  8
layer 1
 62
256
370
0
 48
1.0
  6
BYLAYER
100
AcDbCircle
 10
41.3799999999999812
 20
38.5
 30
0.0
 40
0.75
  0
CIRCLE
  5
68
100
AcDbEntity
  8
layer 1
 62
256
370
0
 48
1.0
  6
BYLAYER
100
AcDbCircle
 10
41.3799999999999812
 20
41.0399999999999991
 30
0.0
 40
0.75
  0
CIRCLE
  5
69
100
AcDbEntity
  8
layer 1
 62
256
370
0
 48
1.0
  6
BYLAYER
100
AcDbCircle
 10
41.3799999999999812
 20
43.5799999999999983
 30
0.0
 40
0.75
  0
CIRCLE
  5
6A
100
AcDbEntity
  8
layer 1
 62
256
370
0
 48
1.0
  6
BYLAYER
100
AcDbCircle
 10
41.3799999999999812
 20
46.1200000000000045
 30
0.0
 40
0.75
  0
CIRCLE
  5
6B
100
AcDbEntity
  8
layer 1
 62
256
370
0
 48
1.0
  6
BYLAYER
100
AcDbCircle
 10
16.6149999999999807
 20
30.8799999999999883
 30
0.0
 40
0.75
  0
CIRCLE
  5
6C
100
AcDbEntity
  8
layer 1
 62
256
370
0
 48
1.0
  6
BYLAYER
100
AcDbCircle
 10
16.6149999999999807
 20
28.3400000000000603
 30
0.0
 40
0.75
  0
CIRCLE
  5
6D
100
AcDbEntity
  8
layer 1
 62
256
370
0
 48
1.0
  6
BYLAYER
100
AcDbCircle
 10
16.6149999999999807
 20
25.8000000000000043
 30
0.0
 40
0.75
  0
CIRCLE
  5
6E
100
AcDbEntity
  8
layer 1
 62
256
370
0
 48
1.0
  6
BYLAYER
100
AcDbCircle
 10
16.6149999999999807
 20
23.259999999999998
 30
0.0
 40
0.75
  0
CIRCLE
  5
6F
100
AcDbEntity
  8
layer 1
 62
256
370
0
 48
1.0
  6
BYLAYER
100
AcDbCircle
 10
16.6149999999999807
 20
20.7199999999999918
 30
0.0
 40
0.75
  0
CIRCLE
  5
70
100
AcDbEntity
  8
layer 1
 62
256
370
0
 48
1.0
  6
BYLAYER
100
AcDbCircle
 10
16.6149999999999807
 20
18.1799999999999997
 30
0.0
 40
0.75
  0
CIRCLE
  5
71
100
AcDbEntity
  8
layer 1
 62
256
370
0
 48
1.0
  6
BYLAYER
100
AcDbCircle
 10
51.5399999999999778
 20
10.4900000000000091
 30
0.0
 40
0.75
  0
CIRCLE
  5
72
100
AcDbEntity
  8
layer 1
 62
256
370
0
 48
1.0
  6
BYLAYER
100
AcDbCircle
 10
51.5399999999999778
 20
7.9500000000000028
 30
0.0
 40
0.75
  0
CIRCLE
  5
73
100
AcDbEntity
  8
layer 1
 62
256
370
0
 48
1.0
  6
BYLAYER
100
AcDbCircle
 10
51.5399999999999778
 20
13.0300000000000082
 30
0.0
 40
0.75
  0
CIRCLE
  5
74
100
AcDbEntity
  8
layer 1
 62
256
370
0
 48
1.0
  6
BYLAYER
100
AcDbCircle
 10
51.5400000000000063
 20
15.5700000000000145
 30
0.0
 40
0.75
  0
CIRCLE
  5
75
100
AcDbEntity
  8
layer 1
 62
256
370
0
 48
1.0
  6
BYLAYER
100
AcDbCircle
 10
51.5400000000000063
 20
18.1100000000000065
 30
0.0
 40
0.75
  0
CIRCLE
  5
76
100
AcDbEntity
  8
layer 1
 62
256
370
0
 48
1.0
  6
BYLAYER
100
AcDbCircle
 10
51.5400000000000063
 20
20.6499999999999986
 30
0.0
 40
0.75
  0
CIRCLE
  5
77
100
AcDbEntity
  8
layer 1
 62
256
370
0
 48
1.0
  6
BYLAYER
100
AcDbCircle
 10
51.5399999999999778
 20
23.1899999999999977
 30
0.0
 40
0.75
  0
CIRCLE
  5
78
100
AcDbEntity
  8
layer 1
 62
256
370
0
 48
1.0
  6
BYLAYER
100
AcDbCircle
 10
51.5431915513710379
 20
25.7247996376702588
 30
0.0
 40
0.75
  0
CIRCLE
  5
79
100
AcDbEntity
  8
layer 1
 62
256
370
0
 48
1.0
  6
BYLAYER
100
AcDbCircle
 10
51.5399999999999778
 20
28.2700000000000031
 30
0.0
 40
0.75
  0
CIRCLE
  5
7A
100
AcDbEntity
  8
layer 1
 62
256
370
0
 48
1.0
  6
BYLAYER
100
AcDbCircle
 10
51.5400000000000063
 20
30.8100000000000165
 30
0.0
 40
0.75
  0
CIRCLE
  5
7B
100
AcDbEntity
  8
layer 1
 62
256
370
0
 48
1.0
  6
BYLAYER
100
AcDbCircle
 10
51.5399999999999778
 20
33.3499999999999943
 30
0.0
 40
0.75
  0
CIRCLE
  5
7C
100
AcDbEntity
  8
layer 1
 62
256
370
0
 48
1.0
  6
BYLAYER
100
AcDbCircle
 10
51.5399999999999778
 20
35.8900000000000006
 30
0.0
 40
0.75
  0
CIRCLE
  5
7D
100
AcDbEntity
  8
layer 1
 62
256
370
0
 48
1.0
  6
BYLAYER
100
AcDbCircle
 10
51.5399999999999778
 20
38.4299999999999997
 30
0.0
 40
0.75
  0
CIRCLE
  5
7E
100
AcDbEntity
  8
layer 1
 62
256
370
0
 48
1.0
  6
BYLAYER
100
AcDbCircle
 10
51.5399999999999778
 20
40.9699999999999847
 30
0.0
 40
0.75
  0
CIRCLE
  5
7F
100
AcDbEntity
  8
layer 1
 62
256
370
0
 48
1.0
  6
BYLAYER
100
AcDbCircle
 10
51.5400000000000063
 20
53.6700000000000159
 30
0.0
 40
0.75
  0
CIRCLE
  5
80
100
AcDbEntity
  8
layer 1
 62
256
370
0
 48
1.0
  6
BYLAYER
100
AcDbCircle
 10
51.5399999999999494
 20
51.1300000000000168
 30
0.0
 40
0.75
  0
CIRCLE
  5
81
100
AcDbEntity
  8
layer 1
 62
256
370
0
 48
1.0
  6
BYLAYER
100
AcDbCircle
 10
51.5399999999999778
 20
48.5900000000000034
 30
0.0
 40
0.75
  0
CIRCLE
  5
82
100
AcDbEntity
  8
layer 1
 62
256
370
0
 48
1.0
  6
BYLAYER
100
AcDbCircle
 10
51.5400000000000063
 20
46.0500000000000114
 30
0.0
 40
0.75
  0
CIRCLE
  5
83
100
AcDbEntity
  8
layer 1
 62
256
370
0
 48
1.0
  6
BYLAYER
100
AcDbCircle
 10
51.5400000000000063
 20
43.5100000000000193
 30
0.0
 40
0.75
  0
CIRCLE
  5
84
100
AcDbEntity
  8
layer 1
 62
256
370
0
 48
1.0
  6
BYLAYER
100
AcDbCircle
 10
76.9399999999999551
 20
53.670000000000023
 30
0.0
 40
0.75
  0
CIRCLE
  5
85
100
AcDbEntity
  8
layer 1
 62
256
370
0
 48
1.0
  6
BYLAYER
100
AcDbCircle
 10
76.9399999999999835
 20
51.1300000000000097
 30
0.0
 40
0.75
  0
CIRCLE
  5
86
100
AcDbEntity
  8
layer 1
 62
256
370
0
 48
1.0
  6
BYLAYER
100
AcDbCircle
 10
76.9399999999999267
 20
48.5900000000000176
 30
0.0
 40
0.75
  0
CIRCLE
  5
87
100
AcDbEntity
  8
layer 1
 62
256
370
0
 48
1.0
  6
BYLAYER
100
AcDbCircle
 10
76.9399999999999551
 20
46.0500000000000043
 30
0.0
 40
0.75
  0
CIRCLE
  5
88
100
AcDbEntity
  8
layer 1
 62
256
370
0
 48
1.0
  6
BYLAYER
100
AcDbCircle
 10
76.9399999999999551
 20
43.5100000000000193
 30
0.0
 40
0.75
  0
CIRCLE
  5
89
100
AcDbEntity
  8
layer 1
 62
256
370
0
 48
1.0
  6
BYLAYER
100
AcDbCircle
 10
76.9399999999999551
 20
40.9699999999999847
 30
0.0
 40
0.75
  0
CIRCLE
  5
8A
100
AcDbEntity
  8
layer 1
 62
256
370
0
 48
1.0
  6
BYLAYER
100
AcDbCircle
 10
76.9399999999999835
 20
38.4300000000000281
 30
0.0
 40
0.75
  0
CIRCLE
  5
8B
100
AcDbEntity
  8
layer 1
 62
256
370
0
 48
1.0
  6
BYLAYER
100
AcDbCircle
 10
76.9399999999999835
 20
35.8900000000000006
 30
0.0
 40
0.75
  0
CIRCLE
  5
8C
100
AcDbEntity
  8
layer 1
 62
256
370
0
 48
1.0
  6
BYLAYER
100
AcDbCircle
 10
76.9399999999999551
 20
33.3500000000000085
 30
0.0
 40
0.75
  0
CIRCLE
  5
8D
100
AcDbEntity
  8
layer 1
 62
256
370
0
 48
1.0
  6
BYLAYER
100
AcDbCircle
 10
76.9399999999999835
 20
30.8099999999999881
 30
0.0
 40
0.75
  0
CIRCLE
  5
8E
100
AcDbEntity
  8
layer 1
 62
256
370
0
 48
1.0
  6
BYLAYER
100
AcDbCircle
 10
76.9399999999999551
 20
28.2700000000000742
 30
0.0
 40
0.75
  0
CIRCLE
  5
8F
100
AcDbEntity
  8
layer 1
 62
256
370
0
 48
1.0
  6
BYLAYER
100
AcDbCircle
 10
76.9399999999999835
 20
25.7300000000000182
 30
0.0
 40
0.75
  0
CIRCLE
  5
90
100
AcDbEntity
  8
layer 1
 62
256
370
0
 48
1.0
  6
BYLAYER
100
AcDbCircle
 10
76.9399999999999835
 20
23.1899999999999906
 30
0.0
 40
0.75
  0
CIRCLE
  5
91
100
AcDbEntity
  8
layer 1
 62
256
370
0
 48
1.0
  6
BYLAYER
100
AcDbCircle
 10
76.9399999999999835
 20
20.6500000000000057
 30
0.0
 40
0.75
  0
CIRCLE
  5
92
100
AcDbEntity
  8
layer 1
 62
256
370
0
 48
1.0
  6
BYLAYER
100
AcDbCircle
 10
76.9399999999999551
 20
18.1099999999999923
 30
0.0
 40
0.75
  0
CIRCLE
  5
93
100
AcDbEntity
  8
layer 1
 62
256
370
0
 48
1.0
  6
BYLAYER
100
AcDbCircle
 10
76.9399999999999835
 20
15.5700000000000003
 30
0.0
 40
0.75
  0
CIRCLE
  5
94
100
AcDbEntity
  8
layer 1
 62
256
370
0
 48
1.0
  6
BYLAYER
100
AcDbCircle
 10
76.9399999999999835
 20
13.0300000000000011
 30
0.0
 40
0.75
  0
CIRCLE
  5
95
100
AcDbEntity
  8
layer 1
 62
256
370
0
 48
1.0
  6
BYLAYER
100
AcDbCircle
 10
76.9399999999999835
 20
10.4900000000000091
 30
0.0
 40
0.75
  0
CIRCLE
  5
96
100
AcDbEntity
  8
layer 1
 62
256
370
0
 48
1.0
  6
BYLAYER
100
AcDbCircle
 10
76.9400000000000119
 20
7.9500000000000028
 30
0.0
 40
0.75
  0
CIRCLE
  5
97
100
AcDbEntity
  8
layer 1
 62
256
370
0
 48
1.0
  6
BYLAYER
100
AcDbCircle
 10
66.7799999999999869
 20
25.7199999999999918
 30
0.0
 40
0.75
  0
CIRCLE
  5
98
100
AcDbEntity
  8
layer 1
 62
256
370
0
 48
1.0
  6
BYLAYER
100
AcDbCircle
 10
66.7799999999999869
 20
23.1800000000000139
 30
0.0
 40
0.75
  0
CIRCLE
  5
99
100
AcDbEntity
  8
layer 1
 62
256
370
0
 48
1.0
  6
BYLAYER
100
AcDbCircle
 10
74.3999999999999915
 20
23.1799999999999997
 30
0.0
 40
0.75
  0
CIRCLE
  5
9A
100
AcDbEntity
  8
layer 1
 62
256
370
0
 48
1.0
  6
BYLAYER
100
AcDbCircle
 10
74.3999999999999915
 20
25.7199999999999989
 30
0.0
 40
0.75
  0
CIRCLE
  5
9B
100
AcDbEntity
  8
layer 1
 62
256
370
0
 48
1.0
  6
BYLAYER
100
AcDbCircle
 10
74.3999999999999915
 20
28.2600000000000264
 30
0.0
 40
0.75
  0
CIRCLE
  5
9C
100
AcDbEntity
  8
layer 1
 62
256
370
0
 48
1.0
  6
BYLAYER
100
AcDbCircle
 10
66.7799999999999869
 20
28.2600000000000762
 30
0.0
 40
0.75
  0
LINE
  5
9D
100
AcDbEntity
  8
0
 62
256
370
0
 48
1.0
  6
BYLAYER
100
AcDbLine
 10
129.179000000000002
 20
-42.8294000000000068
 30
0.0
 11
129.9010000000000105
 21
-43.5506000000000029
 31
0.0
  0
LINE
  5
9E
100
AcDbEntity
  8
0
 62
256
370
0
 48
1.0
  6
BYLAYER
100
AcDbLine
 10
129.1873976822668624
 20
-45.3693999999999988
 30
0.0
 11
129.9010000000000105
 21
-46.0822116226442233
 31
0.0
  0
LINE
  5
9F
100
AcDbEntity
  8
0
 62
256
370
0
 48
1.0
  6
BYLAYER
100
AcDbLine
 10
129.9010000000000105
 20
-42.8294000000000068
 30
0.0
 11
129.179000000000002
 21
-43.5506000000000029
 31
0.0
  0
LINE
  5
A0
100
AcDbEntity
  8
0
 62
256
370
0
 48
1.0
  6
BYLAYER
100
AcDbLine
 10
129.8970281210658015
 20
-45.3693999999999988
 30
0.0
 11
129.179000000000002
 21
-46.090600000000002
 31
0.0
  0
LINE
  5
A1
100
AcDbEntity
  8
0
 62
256
370
0
 48
1.0
  6
BYLAYER
100
AcDbLine
 10
129.179000000000002
 20
-47.909399999999998
 30
0.0
 11
129.9010000000000105
 21
-48.6306000000000012
 31
0.0
  0
LINE
  5
A2
100
AcDbEntity
  8
0
 62
256
370
0
 48
1.0
  6
BYLAYER
100
AcDbLine
 10
129.9010000000000105
 20
-47.909399999999998
 30
0.0
 11
129.179000000000002
 21
-48.6306000000000012
 31
0.0
  0
LINE
  5
A3
100
AcDbEntity
  8
0
 62
256
370
-1
 48
1.0
  6
BYLAYER
100
AcDbLine
 10
129.179000000000002
 20
-40.2894000000000005
 30
0.0
 11
129.900999999999982
 21
-41.0105999999999966
 31
0.0
  0
LINE
  5
A4
100
AcDbEntity
  8
0
 62
256
370
-1
 48
1.0
  6
BYLAYER
100
AcDbLine
 10
129.900999999999982
 20
-40.2894000000000005
 30
0.0
 11
129.179000000000002
 21
-41.0105999999999966
 31
0.0
  0
LINE
  5
A5
100
AcDbEntity
  8
0
 62
256
370
-1
 48
1.0
  6
BYLAYER
100
AcDbLine
 10
129.179000000000002
 20
-38.4705999999999975
 30
0.0
 11
129.900999999999982
 21
-37.7494000000000014
 31
0.0
  0
LINE
  5
A6
100
AcDbEntity
  8
0
 62
256
370
-1
 48
1.0
  6
BYLAYER
100
AcDbLine
 10
129.900999999999982
 20
-38.4705999999999975
 30
0.0
 11
129.179000000000002
 21
-37.7494000000000014
 31
0.0
  0
LINE
  5
A7
100
AcDbEntity
  8
0
 62
256
370
-1
 48
1.0
  6
BYLAYER
100
AcDbLine
 10
129.179000000000002
 20
-35.9305999999999983
 30
0.0
 11
129.900999999999982
 21
-35.2094000000000023
 31
0.0
  0
LINE
  5
A8
100
AcDbEntity
  8
0
 62
256
370
-1
 48
1.0
  6
BYLAYER
100
AcDbLine
 10
129.900999999999982
 20
-35.9305999999999983
 30
0.0
 11
129.179000000000002
 21
-35.2094000000000023
 31
0.0
  0
LINE
  5
A9
100
AcDbEntity
  8
0
 62
256
370
-1
 48
1.0
  6
BYLAYER
100
AcDbLine
 10
129.179000000000002
 20
-33.3905999999999992
 30
0.0
 11
129.900999999999982
 21
-32.6694000000000031
 31
0.0
  0
LINE
  5
AA
100
AcDbEntity
  8
0
 62
256
370
-1
 48
1.0
  6
BYLAYER
100
AcDbLine
 10
129.900999999999982
 20
-33.3905999999999992
 30
0.0
 11
129.179000000000002
 21
-32.6694000000000031
 31
0.0
  0
LINE
  5
AB
100
AcDbEntity
  8
0
 62
256
370
-1
 48
1.0
  6
BYLAYER
100
AcDbLine
 10
129.9010000000000105
 20
-30.8506
 30
0.0
 11
129.179000000000002
 21
-30.1294000000000004
 31
0.0
  0
LINE
  5
AC
100
AcDbEntity
  8
0
 62
256
370
-1
 48
1.0
  6
BYLAYER
100
AcDbLine
 10
129.179000000000002
 20
-30.8506
 30
0.0
 11
129.9010000000000105
 21
-30.1294000000000004
 31
0.0
  0
LINE
  5
AD
100
AcDbEntity
  8
0
 62
256
370
-1
 48
1.0
  6
BYLAYER
100
AcDbLine
 10
129.179000000000002
 20
-50.4493999999999971
 30
0.0
 11
129.9010000000000105
 21
-51.1706000000000074
 31
0.0
  0
LINE
  5
AE
100
AcDbEntity
  8
0
 62
256
370
-1
 48
1.0
  6
BYLAYER
100
AcDbLine
 10
129.9010000000000105
 20
-50.4493999999999971
 30
0.0
 11
129.179000000000002
 21
-51.1706000000000074
 31
0.0
  0
LINE
  5
AF
100
AcDbEntity
  8
0
 62
256
370
-1
 48
1.0
  6
BYLAYER
100
AcDbLine
 10
129.179000000000002
 20
-52.9893999999999963
 30
0.0
 11
129.900999999999982
 21
-53.7106000000000066
 31
0.0
  0
LINE
  5
B0
100
AcDbEntity
  8
0
 62
256
370
-1
 48
1.0
  6
BYLAYER
100
AcDbLine
 10
129.900999999999982
 20
-52.9893999999999963
 30
0.0
 11
129.179000000000002
 21
-53.7106000000000066
 31
0.0
  0
LINE
  5
B1
100
AcDbEntity
  8
0
 62
256
370
-1
 48
1.0
  6
BYLAYER
100
AcDbLine
 10
129.179000000000002
 20
-55.5294000000000025
 30
0.0
 11
129.900999999999982
 21
-56.2505999999999915
 31
0.0
  0
LINE
  5
B2
100
AcDbEntity
  8
0
 62
256
370
-1
 48
1.0
  6
BYLAYER
100
AcDbLine
 10
129.900999999999982
 20
-55.5294000000000025
 30
0.0
 11
129.179000000000002
 21
-56.2505999999999915
 31
0.0
  0
LINE
  5
B3
100
AcDbEntity
  8
0
 62
256
370
-1
 48
1.0
  6
BYLAYER
100
AcDbLine
 10
129.179000000000002
 20
-58.0694000000000017
 30
0.0
 11
129.900999999999982
 21
-58.7905999999999977
 31
0.0
  0
LINE
  5
B4
100
AcDbEntity
  8
0
 62
256
370
-1
 48
1.0
  6
BYLAYER
100
AcDbLine
 10
129.900999999999982
 20
-58.0694000000000017
 30
0.0
 11
129.179000000000002
 21
-58.7905999999999977
 31
0.0
  0
LINE
  5
B5
100
AcDbEntity
  8
0
 62
256
370
-1
 48
1.0
  6
BYLAYER
100
AcDbLine
 10
129.179000000000002
 20
-60.6094000000000008
 30
0.0
 11
129.900999999999982
 21
-61.3305999999999969
 31
0.0
  0
LINE
  5
B6
100
AcDbEntity
  8
0
 62
256
370
-1
 48
1.0
  6
BYLAYER
100
AcDbLine
 10
129.900999999999982
 20
-61.3305999999999969
 30
0.0
 11
129.900999999999982
 21
-60.6094000000000008
 31
0.0
  0
LINE
  5
B7
100
AcDbEntity
  8
0
 62
256
370
-1
 48
1.0
  6
BYLAYER
100
AcDbLine
 10
129.900999999999982
 20
-60.6094000000000008
 30
0.0
 11
129.179000000000002
 21
-61.3305999999999969
 31
0.0
  0
LINE
  5
B8
100
AcDbEntity
  8
0
 62
256
370
-1
 48
1.0
  6
BYLAYER
100
AcDbLine
 10
129.9010000000000105
 20
-63.8706000000000174
 30
0.0
 11
129.179000000000002
 21
-63.1494
 31
0.0
  0
LINE
  5
B9
100
AcDbEntity
  8
0
 62
256
370
-1
 48
1.0
  6
BYLAYER
100
AcDbLine
 10
129.179000000000002
 20
-63.8706000000000174
 30
0.0
 11
129.9010000000000105
 21
-63.1494
 31
0.0
  0
LINE
  5
BA
100
AcDbEntity
  8
0
 62
256
370
-1
 48
1.0
  6
BYLAYER
100
AcDbLine
 10
129.900999999999982
 20
-65.6894000000000062
 30
0.0
 11
129.179000000000002
 21
-66.4106000000000023
 31
0.0
  0
LINE
  5
BB
100
AcDbEntity
  8
0
 62
256
370
-1
 48
1.0
  6
BYLAYER
100
AcDbLine
 10
129.179000000000002
 20
-65.6894000000000062
 30
0.0
 11
129.900999999999982
 21
-66.4106000000000023
 31
0.0
  0
LINE
  5
BC
100
AcDbEntity
  8
0
 62
256
370
-1
 48
1.0
  6
BYLAYER
100
AcDbLine
 10
129.900999999999982
 20
-68.9506000000000085
 30
0.0
 11
129.179000000000002
 21
-68.2293999999999983
 31
0.0
  0
LINE
  5
BD
100
AcDbEntity
  8
0
 62
256
370
-1
 48
1.0
  6
BYLAYER
100
AcDbLine
 10
129.179000000000002
 20
-68.9506000000000085
 30
0.0
 11
129.900999999999982
 21
-68.2293999999999983
 31
0.0
  0
LINE
  5
BE
100
AcDbEntity
  8
0
 62
256
370
-1
 48
1.0
  6
BYLAYER
100
AcDbLine
 10
129.179000000000002
 20
-70.7694000000000045
 30
0.0
 11
129.900999999999982
 21
-71.4906000000000006
 31
0.0
  0
LINE
  5
BF
100
AcDbEntity
  8
0
 62
256
370
-1
 48
1.0
  6
BYLAYER
100
AcDbLine
 10
129.900999999999982
 20
-70.7694000000000045
 30
0.0
 11
129.179000000000002
 21
-71.4906000000000006
 31
0.0
  0
LINE
  5
C0
100
AcDbEntity
  8
0
 62
256
370
-1
 48
1.0
  6
BYLAYER
100
AcDbLine
 10
129.1790000000000305
 20
-73.3094000000000108
 30
0.0
 11
129.9010000000000105
 21
-74.0306000000000211
 31
0.0
  0
LINE
  5
C1
100
AcDbEntity
  8
0
 62
256
370
-1
 48
1.0
  6
BYLAYER
100
AcDbLine
 10
129.9010000000000105
 20
-73.3094000000000108
 30
0.0
 11
129.1790000000000305
 21
-74.0306000000000211
 31
0.0
  0
LINE
  5
C2
100
AcDbEntity
  8
0
 62
256
370
-1
 48
1.0
  6
BYLAYER
100
AcDbLine
 10
154.5790000000000077
 20
-74.0306000000000068
 30
0.0
 11
155.3009999999999877
 21
-73.3093999999999966
 31
0.0
  0
LINE
  5
C3
100
AcDbEntity
  8
0
 62
256
370
-1
 48
1.0
  6
BYLAYER
100
AcDbLine
 10
155.3009999999999877
 20
-74.0306000000000068
 30
0.0
 11
154.5790000000000077
 21
-73.3093999999999966
 31
0.0
  0
LINE
  5
C4
100
AcDbEntity
  8
0
 62
256
370
-1
 48
1.0
  6
BYLAYER
100
AcDbLine
 10
154.5790000000000077
 20
-71.4906000000000006
 30
0.0
 11
155.3009999999999877
 21
-70.7694000000000045
 31
0.0
  0
LINE
  5
C5
100
AcDbEntity
  8
0
 62
256
370
-1
 48
1.0
  6
BYLAYER
100
AcDbLine
 10
155.3009999999999877
 20
-71.4906000000000006
 30
0.0
 11
154.5790000000000077
 21
-70.7694000000000045
 31
0.0
  0
LINE
  5
C6
100
AcDbEntity
  8
0
 62
256
370
-1
 48
1.0
  6
BYLAYER
100
AcDbLine
 10
154.5790000000000077
 20
-68.2293999999999983
 30
0.0
 11
155.3009999999999877
 21
-68.9506000000000085
 31
0.0
  0
LINE
  5
C7
100
AcDbEntity
  8
0
 62
256
370
-1
 48
1.0
  6
BYLAYER
100
AcDbLine
 10
155.3009999999999877
 20
-68.2293999999999983
 30
0.0
 11
154.5790000000000077
 21
-68.9506000000000085
 31
0.0
  0
LINE
  5
C8
100
AcDbEntity
  8
0
 62
256
370
-1
 48
1.0
  6
BYLAYER
100
AcDbLine
 10
154.5790000000000077
 20
-66.4106000000000165
 30
0.0
 11
155.3009999999999877
 21
-65.6894000000000062
 31
0.0
  0
LINE
  5
C9
100
AcDbEntity
  8
0
 62
256
370
-1
 48
1.0
  6
BYLAYER
100
AcDbLine
 10
155.3009999999999877
 20
-66.4106000000000165
 30
0.0
 11
154.5790000000000077
 21
-65.6894000000000062
 31
0.0
  0
LINE
  5
CA
100
AcDbEntity
  8
0
 62
256
370
-1
 48
1.0
  6
BYLAYER
100
AcDbLine
 10
154.5790000000000077
 20
-63.870599999999996
 30
0.0
 11
155.3009999999999593
 21
-63.1493999999999929
 31
0.0
  0
LINE
  5
CB
100
AcDbEntity
  8
0
 62
256
370
-1
 48
1.0
  6
BYLAYER
100
AcDbLine
 10
155.3009999999999593
 20
-63.870599999999996
 30
0.0
 11
154.5790000000000077
 21
-63.1493999999999929
 31
0.0
  0
LINE
  5
CC
100
AcDbEntity
  8
0
 62
256
370
-1
 48
1.0
  6
BYLAYER
100
AcDbLine
 10
154.5790000000000077
 20
-55.5294000000000025
 30
0.0
 11
155.3009999999999877
 21
-56.2505999999999986
 31
0.0
  0
LINE
  5
CD
100
AcDbEntity
  8
0
 62
256
370
-1
 48
1.0
  6
BYLAYER
100
AcDbLine
 10
154.5790000000000077
 20
-56.2505999999999986
 30
0.0
 11
155.3009999999999877
 21
-55.5294000000000025
 31
0.0
  0
LINE
  5
CE
100
AcDbEntity
  8
0
 62
256
370
-1
 48
1.0
  6
BYLAYER
100
AcDbLine
 10
155.3009999999999877
 20
-58.0694000000000088
 30
0.0
 11
154.5790000000000077
 21
-58.7906000000000049
 31
0.0
  0
LINE
  5
CF
100
AcDbEntity
  8
0
 62
256
370
-1
 48
1.0
  6
BYLAYER
100
AcDbLine
 10
154.5790000000000077
 20
-58.0694000000000088
 30
0.0
 11
155.3009999999999877
 21
-58.7906000000000049
 31
0.0
  0
LINE
  5
D0
100
AcDbEntity
  8
0
 62
256
370
-1
 48
1.0
  6
BYLAYER
100
AcDbLine
 10
154.5790000000000077
 20
-60.6094000000000008
 30
0.0
 11
155.3009999999999877
 21
-61.330600000000004
 31
0.0
  0
LINE
  5
D1
100
AcDbEntity
  8
0
 62
256
370
-1
 48
1.0
  6
BYLAYER
100
AcDbLine
 10
155.3009999999999877
 20
-60.6094000000000008
 30
0.0
 11
154.5790000000000077
 21
-61.330600000000004
 31
0.0
  0
LINE
  5
D2
100
AcDbEntity
  8
0
 62
256
370
-1
 48
1.0
  6
BYLAYER
100
AcDbLine
 10
154.5790000000000077
 20
-53.7106000000000066
 30
0.0
 11
155.3009999999999877
 21
-52.9894000000000034
 31
0.0
  0
LINE
  5
D3
100
AcDbEntity
  8
0
 62
256
370
-1
 48
1.0
  6
BYLAYER
100
AcDbLine
 10
155.3009999999999877
 20
-53.7106000000000066
 30
0.0
 11
154.5790000000000077
 21
-52.9894000000000034
 31
0.0
  0
LINE
  5
D4
100
AcDbEntity
  8
0
 62
256
370
-1
 48
1.0
  6
BYLAYER
100
AcDbLine
 10
154.5790000000000077
 20
-51.1705999999999932
 30
0.0
 11
155.3009999999999593
 21
-50.44939999999999
 31
0.0
  0
LINE
  5
D5
100
AcDbEntity
  8
0
 62
256
370
-1
 48
1.0
  6
BYLAYER
100
AcDbLine
 10
155.3009999999999593
 20
-51.1705999999999932
 30
0.0
 11
154.5790000000000077
 21
-50.44939999999999
 31
0.0
  0
LINE
  5
D6
100
AcDbEntity
  8
0
 62
256
370
-1
 48
1.0
  6
BYLAYER
100
AcDbLine
 10
154.5790000000000077
 20
-48.6305999999999941
 30
0.0
 11
155.3009999999999593
 21
-47.9093999999999909
 31
0.0
  0
LINE
  5
D7
100
AcDbEntity
  8
0
 62
256
370
-1
 48
1.0
  6
BYLAYER
100
AcDbLine
 10
155.3009999999999593
 20
-48.6305999999999941
 30
0.0
 11
154.5790000000000077
 21
-47.9093999999999909
 31
0.0
  0
LINE
  5
D8
100
AcDbEntity
  8
0
 62
256
370
-1
 48
1.0
  6
BYLAYER
100
AcDbLine
 10
154.5790000000000077
 20
-45.3693999999999988
 30
0.0
 11
155.3009999999999593
 21
-46.0905999999999949
 31
0.0
  0
LINE
  5
D9
100
AcDbEntity
  8
0
 62
256
370
-1
 48
1.0
  6
BYLAYER
100
AcDbLine
 10
155.3009999999999593
 20
-45.3693999999999988
 30
0.0
 11
154.5790000000000077
 21
-46.0905999999999949
 31
0.0
  0
LINE
  5
DA
100
AcDbEntity
  8
0
 62
256
370
-1
 48
1.0
  6
BYLAYER
100
AcDbLine
 10
154.5790000000000077
 20
-43.5505999999999958
 30
0.0
 11
155.3009999999999593
 21
-42.8293999999999926
 31
0.0
  0
LINE
  5
DB
100
AcDbEntity
  8
0
 62
256
370
-1
 48
1.0
  6
BYLAYER
100
AcDbLine
 10
155.3009999999999593
 20
-43.5505999999999958
 30
0.0
 11
154.5790000000000077
 21
-42.8293999999999926
 31
0.0
  0
LINE
  5
DC
100
AcDbEntity
  8
0
 62
256
370
-1
 48
1.0
  6
BYLAYER
100
AcDbLine
 10
154.5790000000000077
 20
-41.0105999999999966
 30
0.0
 11
155.3009999999999877
 21
-40.2894000000000077
 31
0.0
  0
LINE
  5
DD
100
AcDbEntity
  8
0
 62
256
370
-1
 48
1.0
  6
BYLAYER
100
AcDbLine
 10
155.3009999999999877
 20
-41.0105999999999966
 30
0.0
 11
154.5790000000000077
 21
-40.2894000000000077
 31
0.0
  0
LINE
  5
DE
100
AcDbEntity
  8
0
 62
256
370
-1
 48
1.0
  6
BYLAYER
100
AcDbLine
 10
154.5790000000000077
 20
-38.4706000000000046
 30
0.0
 11
155.3009999999999877
 21
-37.7494000000000014
 31
0.0
  0
LINE
  5
DF
100
AcDbEntity
  8
0
 62
256
370
-1
 48
1.0
  6
BYLAYER
100
AcDbLine
 10
155.3009999999999877
 20
-38.4706000000000046
 30
0.0
 11
154.5790000000000077
 21
-37.7494000000000014
 31
0.0
  0
LINE
  5
E0
100
AcDbEntity
  8
0
 62
256
370
-1
 48
1.0
  6
BYLAYER
100
AcDbLine
 10
154.5790000000000077
 20
-35.9306000000000054
 30
0.0
 11
155.3009999999999877
 21
-35.2094000000000094
 31
0.0
  0
LINE
  5
E1
100
AcDbEntity
  8
0
 62
256
370
-1
 48
1.0
  6
BYLAYER
100
AcDbLine
 10
155.3009999999999877
 20
-35.9306000000000054
 30
0.0
 11
154.5790000000000077
 21
-35.2094000000000094
 31
0.0
  0
LINE
  5
E2
100
AcDbEntity
  8
0
 62
256
370
-1
 48
1.0
  6
BYLAYER
100
AcDbLine
 10
154.5790000000000077
 20
-33.3906000000000063
 30
0.0
 11
155.3009999999999877
 21
-32.6694000000000102
 31
0.0
  0
LINE
  5
E3
100
AcDbEntity
  8
0
 62
256
370
-1
 48
1.0
  6
BYLAYER
100
AcDbLine
 10
155.3009999999999877
 20
-33.3906000000000063
 30
0.0
 11
154.5790000000000077
 21
-32.6694000000000102
 31
0.0
  0
LINE
  5
E4
100
AcDbEntity
  8
0
 62
256
370
-1
 48
1.0
  6
BYLAYER
100
AcDbLine
 10
154.5790000000000362
 20
-30.8506000000000036
 30
0.0
 11
155.3009999999999877
 21
-30.1294000000000004
 31
0.0
  0
LINE
  5
E5
100
AcDbEntity
  8
0
 62
256
370
-1
 48
1.0
  6
BYLAYER
100
AcDbLine
 10
155.3009999999999877
 20
-30.8506000000000036
 30
0.0
 11
154.5790000000000362
 21
-30.1294000000000004
 31
0.0
  0
LINE
  5
E6
100
AcDbEntity
  8
0
 62
256
370
-1
 48
1.0
  6
BYLAYER
100
AcDbLine
 10
155.3009999999999877
 20
-27.5894000000000013
 30
0.0
 11
154.5790000000000362
 21
-28.3106000000000044
 31
0.0
  0
LINE
  5
E7
100
AcDbEntity
  8
0
 62
256
370
-1
 48
1.0
  6
BYLAYER
100
AcDbLine
 10
154.5790000000000362
 20
-27.5894000000000013
 30
0.0
 11
155.3009999999999877
 21
-28.3106000000000044
 31
0.0
  0
LINE
  5
E8
100
AcDbEntity
  8
0
 62
256
370
-1
 48
1.0
  6
BYLAYER
100
AcDbLine
 10
129.179000000000002
 20
-28.3106000000000009
 30
0.0
 11
129.9010000000000105
 21
-27.5894000000000013
 31
0.0
  0
LINE
  5
E9
100
AcDbEntity
  8
0
 62
256
370
-1
 48
1.0
  6
BYLAYER
100
AcDbLine
 10
129.9010000000000105
 20
-28.3106000000000009
 30
0.0
 11
129.179000000000002
 21
-27.5894000000000013
 31
0.0
  0
ENDSEC
  0
SECTION
  2
OBJECTS
  0
DICTIONARY
  5
C
100
AcDbDictionary
280
0
281
1
  3
ACAD_GROUP
350
D
  3
ACAD_LAYOUT
350
1A
  3
ACAD_MLINESTYLE
350
17
  3
ACAD_PLOTSETTINGS
350
19
  3
ACAD_PLOTSTYLENAME
350
E
  3
AcDbVariableDictionary
350
EA
  3
QCAD_OBJECTS
350
EB
  0
DICTIONARY
  5
D
100
AcDbDictionary
280
0
281
1
  0
ACDBDICTIONARYWDFLT
  5
E
100
AcDbDictionary
281
1
  3
Normal
350
F
100
AcDbDictionaryWithDefault
340
F
  0
ACDBPLACEHOLDER
  5
F
  0
DICTIONARY
  5
17
100
AcDbDictionary
280
0
281
1
  3
Standard
350
18
  0
MLINESTYLE
  5
18
100
AcDbMlineStyle
  2
STANDARD
 70
0
  3

 62
256
 51
90.0
 52
90.0
 71
2
 49
0.5
 62
256
  6
BYLAYER
 49
-0.5
 62
256
  6
BYLAYER
  0
DICTIONARY
  5
19
100
AcDbDictionary
280
0
281
1
  0
DICTIONARY
  5
1A
100
AcDbDictionary
281
1
  3
Layout1
350
1E
  3
Layout2
350
26
  3
Model
350
22
  0
LAYOUT
  5
1E
100
AcDbPlotSettings
  1

  2
none_device
  4

  6

 40
0.0
 41
0.0
 42
0.0
 43
0.0
 44
0.0
 45
0.0
 46
0.0
 47
0.0
 48
0.0
 49
0.0
140
0.0
141
0.0
142
1.0
143
1.0
 70
688
 72
0
 73
0
 74
5
  7

 75
16
147
1.0
148
0.0
149
0.0
100
AcDbLayout
  1
Layout1
 70
1
 71
1
 10
0.0
 20
0.0
 11
420.0
 21
297.0
 12
0.0
 22
0.0
 32
0.0
 14
100000000000000000000.0
 24
100000000000000000000.0
 34
100000000000000000000.0
 15
-100000000000000000000.0
 25
-100000000000000000000.0
 35
-100000000000000000000.0
146
0.0
 13
0.0
 23
0.0
 33
0.0
 16
1.0
 26
0.0
 36
0.0
 17
0.0
 27
1.0
 37
0.0
 76
0
330
1B
  0
LAYOUT
  5
22
100
AcDbPlotSettings
  1

  2
none_device
  4

  6

 40
0.0
 41
0.0
 42
0.0
 43
0.0
 44
0.0
 45
0.0
 46
0.0
 47
0.0
 48
0.0
 49
0.0
140
0.0
141
0.0
142
1.0
143
1.0
 70
1712
 72
0
 73
0
 74
0
  7

 75
0
147
1.0
148
0.0
149
0.0
100
AcDbLayout
  1
Model
 70
1
 71
0
 10
0.0
 20
0.0
 11
12.0
 21
9.0
 12
0.0
 22
0.0
 32
0.0
 14
0.0
 24
0.0
 34
0.0
 15
0.0
 25
0.0
 35
0.0
146
0.0
 13
0.0
 23
0.0
 33
0.0
 16
1.0
 26
0.0
 36
0.0
 17
0.0
 27
1.0
 37
0.0
 76
0
330
1F
  0
LAYOUT
  5
26
100
AcDbPlotSettings
  1

  2
none_device
  4

  6

 40
0.0
 41
0.0
 42
0.0
 43
0.0
 44
0.0
 45
0.0
 46
0.0
 47
0.0
 48
0.0
 49
0.0
140
0.0
141
0.0
142
1.0
143
1.0
 70
688
 72
0
 73
0
 74
5
  7

 75
16
147
1.0
148
0.0
149
0.0
100
AcDbLayout
  1
Layout2
 70
1
 71
2
 10
0.0
 20
0.0
 11
12.0
 21
9.0
 12
0.0
 22
0.0
 32
0.0
 14
0.0
 24
0.0
 34
0.0
 15
0.0
 25
0.0
 35
0.0
146
0.0
 13
0.0
 23
0.0
 33
0.0
 16
1.0
 26
0.0
 36
0.0
 17
0.0
 27
1.0
 37
0.0
 76
0
330
23
  0
DICTIONARY
  5
EA
100
AcDbDictionary
281
1
  3
DIMASSOC
350
ED
  3
HIDETEXT
350
EC
  0
DICTIONARYVAR
  5
EC
100
DictionaryVariables
280
0
  1
2
  0
DICTIONARYVAR
  5
ED
100
DictionaryVariables
280
0
  1
1
  0
DICTIONARY
  5
EB
100
AcDbDictionary
281
1
  3
ColorSettings/BackgroundColor
350
EE
  3
ColorSettings/ColorMode
350
EF
  3
Grid/DisplayGrid00
350
F0
  3
Grid/DisplayGrid01
350
F1
  3
Grid/DisplayGrid02
350
F2
  3
Grid/DisplayGrid03
350
F3
  3
Grid/GridSpacingX00
350
F4
  3
Grid/GridSpacingX01
350
F5
  3
Grid/GridSpacingX02
350
F6
  3
Grid/GridSpacingX03
350
F7
  3
Grid/GridSpacingY00
350
F8
  3
Grid/GridSpacingY01
350
F9
  3
Grid/GridSpacingY02
350
FA
  3
Grid/GridSpacingY03
350
FB
  3
Grid/IsometricGrid00
350
FC
  3
Grid/IsometricGrid01
350
FD
  3
Grid/IsometricGrid02
350
FE
  3
Grid/IsometricGrid03
350
FF
  3
Grid/IsometricProjection00
350
100
  3
Grid/IsometricProjection01
350
101
  3
Grid/IsometricProjection02
350
102
  3
Grid/IsometricProjection03
350
103
  3
Grid/MetaGridSpacingX00
350
104
  3
Grid/MetaGridSpacingX01
350
105
  3
Grid/MetaGridSpacingX02
350
106
  3
Grid/MetaGridSpacingX03
350
107
  3
Grid/MetaGridSpacingY00
350
108
  3
Grid/MetaGridSpacingY01
350
109
  3
Grid/MetaGridSpacingY02
350
10A
  3
Grid/MetaGridSpacingY03
350
10B
  3
MultiPageSettings/Columns
350
10C
  3
MultiPageSettings/GlueMarginsBottom
350
10D
  3
MultiPageSettings/GlueMarginsLeft
350
10E
  3
MultiPageSettings/GlueMarginsRight
350
10F
  3
MultiPageSettings/GlueMarginsTop
350
110
  3
MultiPageSettings/PrintCropMarks
350
111
  3
MultiPageSettings/Rows
350
112
  3
PageSettings/OffsetX
350
113
  3
PageSettings/OffsetY
350
114
  3
PageSettings/PageOrientation
350
115
  3
PageSettings/PaperHeight
350
116
  3
PageSettings/PaperWidth
350
117
  3
PageSettings/Scale
350
118
  3
PageSettings/ShowPaperBorders
350
119
  3
PageTagSettings/EnablePageTags
350
11A
  3
PageTagSettings/TagAlignment
350
11B
  3
PageTagSettings/TagFont
350
11C
  3
PageTagSettings/TagPosition
350
11D
  3
QCADVersion
350
11E
  3
UnitSettings/PaperUnit
350
11F
  3
ViewportCenter
350
120
  3
ViewportHeight
350
121
  3
ViewportWidth
350
122
  0
XRECORD
  5
EE
330
EB
100
AcDbXrecord
280
1
1000
Weiss
  0
XRECORD
  5
EF
330
EB
100
AcDbXrecord
280
1
1000
FullColor
  0
XRECORD
  5
F0
330
EB
100
AcDbXrecord
280
1
290
1
  0
XRECORD
  5
F1
330
EB
100
AcDbXrecord
280
1
290
1
  0
XRECORD
  5
F2
330
EB
100
AcDbXrecord
280
1
290
1
  0
XRECORD
  5
F3
330
EB
100
AcDbXrecord
280
1
290
1
  0
XRECORD
  5
F4
330
EB
100
AcDbXrecord
280
1
1000
auto
  0
XRECORD
  5
F5
330
EB
100
AcDbXrecord
280
1
1000
auto
  0
XRECORD
  5
F6
330
EB
100
AcDbXrecord
280
1
1000
auto
  0
XRECORD
  5
F7
330
EB
100
AcDbXrecord
280
1
1000
auto
  0
XRECORD
  5
F8
330
EB
100
AcDbXrecord
280
1
1000
auto
  0
XRECORD
  5
F9
330
EB
100
AcDbXrecord
280
1
1000
auto
  0
XRECORD
  5
FA
330
EB
100
AcDbXrecord
280
1
1000
auto
  0
XRECORD
  5
FB
330
EB
100
AcDbXrecord
280
1
1000
auto
  0
XRECORD
  5
FC
330
EB
100
AcDbXrecord
280
1
290
0
  0
XRECORD
  5
FD
330
EB
100
AcDbXrecord
280
1
290
0
  0
XRECORD
  5
FE
330
EB
100
AcDbXrecord
280
1
290
0
  0
XRECORD
  5
FF
330
EB
100
AcDbXrecord
280
1
290
0
  0
XRECORD
  5
100
330
EB
100
AcDbXrecord
280
1
 90
65537
  0
XRECORD
  5
101
330
EB
100
AcDbXrecord
280
1
 90
65537
  0
XRECORD
  5
102
330
EB
100
AcDbXrecord
280
1
 90
65537
  0
XRECORD
  5
103
330
EB
100
AcDbXrecord
280
1
 90
65537
  0
XRECORD
  5
104
330
EB
100
AcDbXrecord
280
1
1000
auto
  0
XRECORD
  5
105
330
EB
100
AcDbXrecord
280
1
1000
auto
  0
XRECORD
  5
106
330
EB
100
AcDbXrecord
280
1
1000
auto
  0
XRECORD
  5
107
330
EB
100
AcDbXrecord
280
1
1000
auto
  0
XRECORD
  5
108
330
EB
100
AcDbXrecord
280
1
1000
auto
  0
XRECORD
  5
109
330
EB
100
AcDbXrecord
280
1
1000
auto
  0
XRECORD
  5
10A
330
EB
100
AcDbXrecord
280
1
1000
auto
  0
XRECORD
  5
10B
330
EB
100
AcDbXrecord
280
1
1000
auto
  0
XRECORD
  5
10C
330
EB
100
AcDbXrecord
280
1
 90
1
  0
XRECORD
  5
10D
330
EB
100
AcDbXrecord
280
1
 40
10.0
  0
XRECORD
  5
10E
330
EB
100
AcDbXrecord
280
1
 40
10.0
  0
XRECORD
  5
10F
330
EB
100
AcDbXrecord
280
1
 40
10.0
  0
XRECORD
  5
110
330
EB
100
AcDbXrecord
280
1
 40
10.0
  0
XRECORD
  5
111
330
EB
100
AcDbXrecord
280
1
290
0
  0
XRECORD
  5
112
330
EB
100
AcDbXrecord
280
1
 90
1
  0
XRECORD
  5
113
330
EB
100
AcDbXrecord
280
1
 40
0.0
  0
XRECORD
  5
114
330
EB
100
AcDbXrecord
280
1
 40
0.0
  0
XRECORD
  5
115
330
EB
100
AcDbXrecord
280
1
1000
Portrait
  0
XRECORD
  5
116
330
EB
100
AcDbXrecord
280
1
 40
297.0
  0
XRECORD
  5
117
330
EB
100
AcDbXrecord
280
1
 40
210.0
  0
XRECORD
  5
118
330
EB
100
AcDbXrecord
280
1
1000
1:1
  0
XRECORD
  5
119
330
EB
100
AcDbXrecord
280
1
290
1
  0
XRECORD
  5
11A
330
EB
100
AcDbXrecord
280
1
290
0
  0
XRECORD
  5
11B
330
EB
100
AcDbXrecord
280
1
1000
Inside
  0
XRECORD
  5
11C
330
EB
100
AcDbXrecord
280
1
1000
Arial,10,-1,5,50,0,0,0,0,0
  0
XRECORD
  5
11D
330
EB
100
AcDbXrecord
280
1
1000
TopLeft
  0
XRECORD
  5
11E
330
EB
100
AcDbXrecord
280
1
1000
3.32.3
  0
XRECORD
  5
11F
330
EB
100
AcDbXrecord
280
1
 90
4
  0
XRECORD
  5
121
330
EB
100
AcDbXrecord
280
1
 40
1503.0333983507437097
  0
XRECORD
  5
122
330
EB
100
AcDbXrecord
280
1
 40
1819.3239047862916777
  0
ENDSEC
  0
EOF
